<svg width="104" height="25" viewBox="0 0 104 25" fill="none" xmlns="http://www.w3.org/2000/svg">
<g clip-path="url(#clip0_85_755)">
<path d="M103.533 1.10295C103.165 0.61275 102.797 0.2451 100.959 0.12255C100.469 0.12255 98.9983 0 96.4248 0C89.6845 0 85.0278 2.08333 82.6993 6.1275C83.312 2.0835 79.3905 0 70.812 0C60.763 0 54.3905 4.044 51.817 12.255C50.8366 15.3188 50.8366 17.7697 51.5719 19.7305H49.121C47.2827 19.8531 44.8317 19.9756 43.2387 19.9756C39.5622 19.9756 37.2337 19.3628 36.376 18.1374C35.6407 17.0344 35.6407 14.9511 36.6211 11.8874C38.2142 6.86287 42.0133 4.65687 48.1406 4.65687C51.3268 4.65687 54.3906 5.02452 54.3906 5.02452C54.7582 5.02452 55.0033 4.53432 55.0033 4.16667L54.8808 3.79902L54.6357 2.08335C54.5131 0.980398 53.6553 0.367673 52.1847 0.122573C50.8366 2.25067e-05 49.7337 2.25e-05 48.2632 2.25e-05H48.1406C40.1749 2.25e-05 34.5376 2.69602 31.4739 7.84327C32.5768 2.57377 28.9004 2.25e-05 20.4444 2.25e-05C15.6649 2.25e-05 12.2336 0.122572 10.2729 0.367673C8.67977 0.61277 7.69939 1.22552 7.33164 2.32845L6.59634 4.53432C6.47379 4.90197 6.71889 5.14707 7.20909 5.14707C7.57674 5.14707 9.04732 4.90198 11.4983 4.77942C14.8071 4.53433 17.1356 4.41177 18.7288 4.41177C23.3856 4.41177 25.4691 5.63727 24.7338 7.96577C24.6113 8.45597 24.2436 8.82362 23.6309 8.94617C19.2191 9.68147 15.6651 10.1717 13.0916 10.5393C5.73864 11.5197 1.44939 13.7255 0.346641 17.402C-1.24648 22.4265 2.67507 24.8775 12.1114 24.8775C16.7681 24.8775 20.8124 24.6325 23.9986 24.0197C25.8369 23.652 26.8174 23.2844 27.1849 22.0589L28.9006 16.4217C28.778 22.0589 32.5771 24.8777 40.6653 24.8777C44.0966 24.8777 47.4056 24.7551 48.9986 24.51C50.5916 24.2649 51.4496 23.8973 51.8173 22.6718L52.185 20.9561C53.9007 23.6521 57.6997 25.0001 63.4595 25.0001C69.587 25.0001 73.1407 24.8776 74.1212 24.5099C74.9791 24.2648 75.4693 23.7746 75.7144 23.1619C75.7144 23.0393 75.7144 22.9168 75.8369 22.7942L76.5722 20.4658C76.6948 20.0981 76.4497 19.853 75.9595 19.853L72.038 20.0981C69.4645 20.2207 67.3812 20.3432 65.9105 20.3432C63.0917 20.3432 61.2537 20.0981 60.1507 19.7305C58.5576 19.1177 57.8223 18.0148 57.9449 16.1765L70.3224 14.5834C75.8371 13.8481 79.6361 12.1324 81.4744 9.43637L77.1851 23.7746C77.0626 24.0197 77.1851 24.2648 77.3077 24.3874C77.4302 24.5099 77.6753 24.6325 78.1655 24.6325H83.3125C84.1704 24.6325 84.538 24.1423 84.6606 23.7746L89.1948 7.96587C89.8076 5.88254 91.6458 4.90211 95.0771 4.90211C98.1408 4.90211 100.347 4.90212 101.817 5.02467H101.94C102.185 5.02467 102.675 4.90211 103.043 4.28937L103.778 2.08349C103.778 1.71584 103.778 1.34819 103.533 1.10309L103.533 1.10295ZM20.935 19.9755C19.3419 20.2205 17.0135 20.3431 14.0723 20.3431C8.80279 20.3431 6.59679 19.2402 7.20954 17.1569C7.69974 15.6862 9.04776 14.7059 11.2535 14.4609L23.1408 12.8677L20.935 19.9755ZM75.715 7.23045C75.2248 8.82358 72.8963 9.92645 68.7298 10.5392L58.8033 11.8872L59.0484 11.0294C59.9062 8.3334 61.0092 6.61765 62.4796 5.63715C63.9502 4.65675 66.4011 4.16655 69.8326 4.16655C74.3669 4.2891 76.3276 5.2695 75.7149 7.2303L75.715 7.23045Z" fill="white"/>
</g>
<defs>
<clipPath id="clip0_85_755">
<rect width="103.778" height="25" fill="white"/>
</clipPath>
</defs>
</svg>
