<svg width="126" height="25" viewBox="0 0 126 25" fill="none" xmlns="http://www.w3.org/2000/svg">
<g clip-path="url(#clip0_85_759)">
<path d="M120.614 3.16604C120.614 1.73546 121.764 0.562852 123.171 0.562852C123.851 0.562852 124.484 0.844278 124.977 1.31332C125.469 1.80582 125.727 2.46248 125.727 3.14259C125.727 3.8227 125.469 4.47936 124.977 4.97186C124.484 5.46435 123.851 5.74578 123.171 5.74578C121.764 5.74578 120.614 4.59662 120.614 3.16604ZM120.403 3.16604C120.403 4.71388 121.646 5.9803 123.194 5.9803C123.945 5.9803 124.625 5.69887 125.141 5.15947C125.657 4.62008 125.962 3.91651 125.962 3.16604C125.962 2.41557 125.68 1.71201 125.141 1.17261C124.601 0.633208 123.921 0.351782 123.194 0.351782C121.646 0.351782 120.403 1.6182 120.403 3.16604ZM122.139 4.83114H122.538V3.51782H123.429C123.569 3.51782 123.687 3.51782 123.78 3.56473C123.898 3.63508 123.968 3.7758 123.992 3.96341L124.038 4.47936C124.038 4.59662 124.038 4.66698 124.038 4.71388C124.062 4.76079 124.062 4.78424 124.085 4.80769H124.578V4.73734C124.508 4.71388 124.484 4.64353 124.461 4.54972C124.437 4.50281 124.437 4.40901 124.437 4.29174L124.414 3.89306C124.414 3.70544 124.367 3.58818 124.32 3.51782C124.25 3.44747 124.156 3.37711 124.038 3.33021C124.179 3.25985 124.273 3.16604 124.343 3.04878C124.414 2.93152 124.437 2.79081 124.437 2.60319C124.437 2.25141 124.296 2.01689 124.038 1.87617C123.898 1.80582 123.71 1.78236 123.499 1.78236H122.162L122.139 4.83114ZM122.514 3.16604V2.11069H123.452C123.593 2.11069 123.71 2.13415 123.78 2.18105C123.921 2.25141 123.992 2.41557 123.992 2.62664C123.992 2.83771 123.945 2.97842 123.827 3.04878C123.734 3.11914 123.593 3.16604 123.405 3.16604H122.514ZM11.3977 7.03565L0 24.9531H7.78612L18.7617 7.83302L11.3977 7.03565ZM58.3255 6.63696V0H36.1632C33.1379 0.187617 31.8246 1.64165 30.8396 2.67355C29.7842 3.7758 29.1979 6.09756 29.1979 6.09756V0.0469043H17.4015C16.5103 0.0469043 15.666 0.422139 15.0328 1.31332C14.3762 2.18105 11.6792 6.63696 11.6792 6.63696H58.3255ZM118.598 6.63696V0H94.8874C91.8856 0.187617 90.5488 1.64165 89.5638 2.67355C88.5084 3.7758 87.9221 6.09756 87.9221 6.09756V6.63696H118.598ZM66.1116 0.0234522H59.4747V6.63696H66.1116V0.0234522ZM87.8518 0.0234522H81.2383V6.63696H87.8518V0.0234522ZM87.8518 9.02908L81.3321 8.63039V16.2992C81.3321 16.2992 81.3086 18.5038 79.1745 18.5038H68.0113C68.0113 18.5038 66.1116 18.3396 66.1116 16.3227V7.5985L59.545 7.12946V18.879C60.6004 24.5075 65.6895 24.9531 65.6895 24.9531C65.6895 24.9531 66.2054 24.9765 66.2993 25H81.4259C81.4259 25 87.8987 24.4841 87.8987 18.2458L87.8518 9.02908ZM22.4437 24.9531H53.4475C58.8415 23.8743 59.4043 18.9493 59.4043 18.9493C59.6623 17.4953 59.5216 16.2992 59.5216 16.2992C59.3574 15.3143 57.4812 10.9522 53.4475 10.5769C51.0319 10.3424 29.5263 8.63039 29.5263 8.63039C29.9484 10.788 30.9099 11.8902 31.5666 12.5C33.0675 13.9306 35.4362 14.3527 35.4362 14.3527C35.9991 14.3996 52.0169 15.7364 52.0169 15.7364C52.5328 15.7598 53.4944 15.9006 53.4709 17.167C53.4709 17.3311 53.3302 18.4334 52.1107 18.4334H28.9165V8.58349L22.4672 8.11445C22.4437 8.11445 22.4437 24.9531 22.4437 24.9531ZM87.8987 25H111.632C117.589 24.6482 118.433 18.9962 118.433 18.9962C118.644 17.5188 118.48 16.2992 118.48 16.2992C118.316 14.9625 116.417 10.9287 112.359 10.53C109.967 10.2955 88.3208 9.02908 88.3208 9.02908C88.954 11.257 89.8218 11.9371 90.4784 12.5469C91.9794 14.0009 94.2073 14.3293 94.2073 14.3293C94.7702 14.3762 110.952 15.7364 110.952 15.7364C111.468 15.7598 112.523 15.8068 112.523 17.0732C112.523 17.4484 112.336 17.8471 112.101 18.0582C112.101 18.0582 111.538 18.363 110.999 18.363H87.969L87.8987 25Z" fill="white"/>
</g>
<defs>
<clipPath id="clip0_85_759">
<rect width="125.962" height="25" fill="white"/>
</clipPath>
</defs>
</svg>
