<svg width="16" height="17" viewBox="0 0 16 17" fill="none" xmlns="http://www.w3.org/2000/svg">
<g clip-path="url(#clip0_85_617)">
<path d="M14 4.29297H12C11.724 4.29297 11.5 4.51697 11.5 4.79297C11.5 5.06897 11.724 5.29297 12 5.29297H14C14.2755 5.29297 14.5 5.51747 14.5 5.79297V6.79297C14.5 7.06847 14.2755 7.29297 14 7.29297H2C1.7245 7.29297 1.5 7.06847 1.5 6.79297V5.79297C1.5 5.51747 1.7245 5.29297 2 5.29297H4C4.276 5.29297 4.5 5.06897 4.5 4.79297C4.5 4.51697 4.276 4.29297 4 4.29297H2C1.173 4.29297 0.5 4.96597 0.5 5.79297V6.79297C0.5 7.46297 0.9445 8.02497 1.552 8.21697L2.372 14.3675C2.4785 15.167 3.1935 15.793 4 15.793H12C12.8065 15.793 13.5215 15.167 13.6275 14.368L14.4475 8.21697C15.0555 8.02497 15.5 7.46297 15.5 6.79297V5.79297C15.5 4.96597 14.827 4.29297 14 4.29297ZM12.6365 14.236C12.597 14.5325 12.2995 14.793 12 14.793H4C3.7005 14.793 3.403 14.5325 3.3635 14.2355L2.571 8.29297H13.429L12.6365 14.236Z" fill="#1E1E1E"/>
<path d="M4.81411 6.75741C4.87511 6.78141 4.93811 6.79291 5.00011 6.79291C5.19861 6.79291 5.38611 6.67391 5.46461 6.47841L7.46461 1.47841C7.56711 1.22191 7.44261 0.930909 7.18611 0.828409C6.92811 0.726409 6.63861 0.850409 6.53611 1.10691L4.53611 6.10691C4.43311 6.36391 4.55811 6.65441 4.81411 6.75741ZM10.5356 6.47891C10.6141 6.67391 10.8021 6.79291 11.0001 6.79291C11.0621 6.79291 11.1246 6.78141 11.1856 6.75691C11.4421 6.65391 11.5666 6.36341 11.4641 6.10691L9.46411 1.10691C9.36161 0.850909 9.07111 0.727409 8.81411 0.828409C8.55761 0.931409 8.43311 1.22191 8.53561 1.47841L10.5356 6.47891ZM8.00011 13.2929C8.27611 13.2929 8.50011 13.0689 8.50011 12.7929V10.2929C8.50011 10.0169 8.27611 9.79291 8.00011 9.79291C7.72411 9.79291 7.50011 10.0169 7.50011 10.2929V12.7929C7.50011 13.0689 7.72411 13.2929 8.00011 13.2929ZM10.5001 13.2929C10.7761 13.2929 11.0001 13.0689 11.0001 12.7929V10.2929C11.0001 10.0169 10.7761 9.79291 10.5001 9.79291C10.2241 9.79291 10.0001 10.0169 10.0001 10.2929V12.7929C10.0001 13.0689 10.2241 13.2929 10.5001 13.2929ZM5.50011 13.2929C5.77611 13.2929 6.00011 13.0689 6.00011 12.7929V10.2929C6.00011 10.0169 5.77611 9.79291 5.50011 9.79291C5.22411 9.79291 5.00011 10.0169 5.00011 10.2929V12.7929C5.00011 13.0689 5.22411 13.2929 5.50011 13.2929Z" fill="#1E1E1E"/>
</g>
<defs>
<clipPath id="clip0_85_617">
<rect width="16" height="16" fill="white" transform="translate(0 0.292969)"/>
</clipPath>
</defs>
</svg>
