<svg width="24" height="24" viewBox="0 0 24 24" fill="none" xmlns="http://www.w3.org/2000/svg">
<g clip-path="url(#clip0_222_367)">
<path d="M21 6H18C17.586 6 17.25 6.336 17.25 6.75C17.25 7.164 17.586 7.5 18 7.5H21C21.4132 7.5 21.75 7.83675 21.75 8.25V9.75C21.75 10.1632 21.4132 10.5 21 10.5H3C2.58675 10.5 2.25 10.1632 2.25 9.75V8.25C2.25 7.83675 2.58675 7.5 3 7.5H6C6.414 7.5 6.75 7.164 6.75 6.75C6.75 6.336 6.414 6 6 6H3C1.7595 6 0.75 7.0095 0.75 8.25V9.75C0.75 10.755 1.41675 11.598 2.328 11.886L3.558 21.1117C3.71775 22.311 4.79025 23.25 6 23.25H18C19.2097 23.25 20.2822 22.311 20.4412 21.1125L21.6712 11.886C22.5833 11.598 23.25 10.755 23.25 9.75V8.25C23.25 7.0095 22.2405 6 21 6ZM18.9548 20.9145C18.8955 21.3593 18.4492 21.75 18 21.75H6C5.55075 21.75 5.1045 21.3593 5.04525 20.9137L3.8565 12H20.1435L18.9548 20.9145Z" fill="#1E1E1E"/>
<path d="M7.22116 9.69654C7.31266 9.73254 7.40716 9.74979 7.50016 9.74979C7.79791 9.74979 8.07916 9.57129 8.19691 9.27804L11.1969 1.77804C11.3507 1.39329 11.1639 0.956788 10.7792 0.803038C10.3922 0.650038 9.95791 0.836038 9.80416 1.22079L6.80416 8.72079C6.64966 9.10629 6.83716 9.54204 7.22116 9.69654ZM15.8034 9.27879C15.9212 9.57129 16.2032 9.74979 16.5002 9.74979C16.5932 9.74979 16.6869 9.73254 16.7784 9.69579C17.1632 9.54129 17.3499 9.10554 17.1962 8.72079L14.1962 1.22079C14.0424 0.836788 13.6067 0.651538 13.2212 0.803038C12.8364 0.957538 12.6497 1.39329 12.8034 1.77804L15.8034 9.27879ZM12.0002 19.4998C12.4142 19.4998 12.7502 19.1638 12.7502 18.7498V14.9998C12.7502 14.5858 12.4142 14.2498 12.0002 14.2498C11.5862 14.2498 11.2502 14.5858 11.2502 14.9998V18.7498C11.2502 19.1638 11.5862 19.4998 12.0002 19.4998ZM15.7502 19.4998C16.1642 19.4998 16.5002 19.1638 16.5002 18.7498V14.9998C16.5002 14.5858 16.1642 14.2498 15.7502 14.2498C15.3362 14.2498 15.0002 14.5858 15.0002 14.9998V18.7498C15.0002 19.1638 15.3362 19.4998 15.7502 19.4998ZM8.25016 19.4998C8.66416 19.4998 9.00016 19.1638 9.00016 18.7498V14.9998C9.00016 14.5858 8.66416 14.2498 8.25016 14.2498C7.83616 14.2498 7.50016 14.5858 7.50016 14.9998V18.7498C7.50016 19.1638 7.83616 19.4998 8.25016 19.4998Z" fill="#1E1E1E"/>
</g>
<defs>
<clipPath id="clip0_222_367">
<rect width="24" height="24" fill="white"/>
</clipPath>
</defs>
</svg>
