<svg width="215" height="27" viewBox="0 0 215 27" fill="none" xmlns="http://www.w3.org/2000/svg">
<g clip-path="url(#clip0_85_741)">
<path d="M146.242 11.473H131.695L134.054 7.44296C135.036 5.77295 135.921 5.18296 137.396 5.18296C138.87 5.18296 139.362 6.36196 138.576 7.83596H153.418L154.893 5.18296C155.974 3.21696 155.974 1.05396 153.32 1.05396H127.174C124.815 1.05396 122.947 1.34895 121.571 3.60995L116.951 11.473C115.674 13.734 115.772 15.602 118.917 15.602H133.956L131.499 19.926C130.811 21.106 129.926 21.892 127.862 21.892C126.092 21.892 126.191 20.713 126.977 19.534H112.233L110.463 22.483C109.382 24.351 110.267 26.022 112.822 26.022H138.771C141.13 26.022 143.194 24.941 144.374 22.975L148.797 15.603C149.781 13.734 149.289 11.473 146.242 11.473Z" fill="white"/>
<path d="M209.391 5.90991C208.191 5.90991 207.218 6.85291 207.218 8.00491C207.218 9.18091 208.191 10.1239 209.391 10.1239C210.585 10.1239 211.552 9.18091 211.552 8.00491C211.552 6.85291 210.585 5.90991 209.391 5.90991ZM209.391 9.71191C208.412 9.71191 207.63 8.96591 207.63 8.00391C207.63 7.07291 208.411 6.32091 209.391 6.32091C210.358 6.32091 211.14 7.07291 211.14 8.00391C211.14 8.96591 210.358 9.71191 209.391 9.71191Z" fill="white"/>
<path d="M112.725 1.05396H90.51C87.4631 1.05396 83.531 1.05396 81.172 5.18296L71.342 21.892C69.966 24.153 71.146 26.021 73.701 26.021H99.553C102.207 26.021 103.878 25.234 105.942 21.892L115.772 5.18296C117.049 3.02096 115.083 1.05396 112.725 1.05396ZM100.241 7.44296L92.8701 19.926C91.8871 21.696 91.002 21.892 88.741 21.892C86.48 21.892 85.89 21.106 86.579 19.926L94.0491 7.44296C95.1311 5.57495 96.408 5.18296 98.276 5.18296C100.144 5.18296 101.224 5.77295 100.241 7.44296Z" fill="white"/>
<path d="M73.7999 1.05396H45.2949L33.0089 21.892H5.87988L5.89341 26.021H60.6289C64.2659 26.021 65.4449 24.251 66.2319 22.875L69.1799 17.764C69.9669 16.388 69.9669 14.815 68.3939 13.931C69.9699 13.931 72.1289 12.85 73.4069 10.589L76.3559 5.57596C77.8309 3.11896 76.0609 1.05396 73.7999 1.05396ZM59.1549 17.863L57.6799 20.221C57.2869 21.008 56.5989 21.892 54.9279 21.892H47.6539L51.3919 15.602H58.4659C59.7439 15.602 59.7439 16.781 59.1549 17.863ZM65.3469 7.44296L63.8719 9.80196C63.4789 10.589 62.7909 11.473 61.1199 11.473H53.8459L57.5809 5.18296H64.6579C65.9369 5.18296 65.9369 6.36196 65.3469 7.44296Z" fill="white"/>
<path d="M210.501 7.45594C210.501 7.25894 210.412 7.04994 210.233 6.94894C210.047 6.84694 209.844 6.83594 209.642 6.83594H208.585V9.19294H208.943V8.10594H209.366L210.058 9.19194H210.47L209.736 8.10594C210.167 8.09494 210.501 7.92094 210.501 7.45594ZM209.337 7.81394H208.943V7.10394H209.569C209.874 7.10394 210.142 7.14494 210.142 7.44994C210.143 7.87394 209.677 7.81394 209.337 7.81394Z" fill="white"/>
<path d="M174.213 5.18003H211.073L211.061 1.05103H161.927L147.281 26.018H181.487L183.944 21.889H164.384L168.119 15.599H187.679L190.038 11.47H170.577L174.213 5.18003Z" fill="white"/>
</g>
<defs>
<clipPath id="clip0_85_741">
<rect width="214.993" height="26.8" fill="white"/>
</clipPath>
</defs>
</svg>
