<svg width="142" height="21" viewBox="0 0 142 21" fill="none" xmlns="http://www.w3.org/2000/svg">
<path d="M9.42817 20.7891C14.993 20.7891 19.1492 16.9257 19.1492 10.7891C19.1492 4.66633 14.993 0.789062 9.42817 0.789062C12.8591 0.789062 14.5746 4.30371 14.5746 10.7891C14.5746 17.2884 12.8591 20.7891 9.42817 20.7891ZM6.84798 20.7891V0.789062H0V1.02616C1.25523 1.02616 2.28731 2.16982 2.28731 3.6482V17.9299C2.28731 19.4223 1.25523 20.5659 0 20.5659V20.7891H6.84798Z" fill="#1E1E1E"/>
<path d="M22.5802 20.7891V20.5659C21.7015 20.5659 21.2413 19.6594 21.2413 18.3762C21.2413 17.7486 21.3529 17.0234 21.59 16.2702C20.5718 18.5715 18.9819 20.5659 17.5314 20.5659V20.7891H22.5802ZM38.7029 20.7891V20.5659C37.1409 20.5659 35.4533 18.1949 34.4491 15.6426L28.6332 0.789062H27.5035L25.8159 5.19631L29.9024 15.6845C30.2929 16.7026 30.4881 17.6928 30.4881 18.5157C30.4881 19.7291 30.0697 20.5659 29.2329 20.5659V20.7891H38.7029Z" fill="#1E1E1E"/>
<path d="M48.3264 20.7891V20.5659C47.0711 20.5659 46.053 19.4223 46.053 17.9299V3.6482C46.053 2.16982 47.0711 1.02616 48.3264 1.02616V0.789062H39.1911V1.02616C40.4463 1.02616 41.4784 2.16982 41.4784 3.6482V17.9299C41.4784 19.4223 40.4463 20.5659 39.1911 20.5659V20.7891H48.3264Z" fill="#1E1E1E"/>
<path d="M53.8354 20.7891V20.5659C52.5802 20.5659 51.4086 18.3483 51.4086 15.6705C51.4086 18.3483 50.2929 20.5659 49.0377 20.5659V20.7891H53.8354ZM65.6067 20.7891L65.5788 15.4055C58.6471 5.67051 62.1199 10.538 55.1883 0.789062H49.0377V1.02616C49.7071 1.02616 50.5439 2.42086 52.0223 4.58265L63.4589 20.7891H65.6067ZM65.523 5.61472C65.6067 3.07637 66.6806 1.02616 67.894 1.02616V0.789062H63.0962V1.02616C64.2817 1.02616 65.4114 3.11821 65.523 5.61472Z" fill="#1E1E1E"/>
<path d="M69.0795 6.80022C69.735 4.40134 71.7992 1.63983 74.1562 0.789062H68.8563V6.80022H69.0795ZM82.5662 20.7891V20.5659C81.311 20.5659 80.2789 19.4223 80.2789 17.9299V0.789062H75.7043V17.9299C75.7043 19.4223 74.6862 20.5659 73.431 20.5659V20.7891H82.5662ZM87.1409 6.80022V0.789062H81.841C84.1841 1.63983 86.2622 4.40134 86.9038 6.80022H87.1409Z" fill="#1E1E1E"/>
<path d="M107.099 20.7891V20.5659C105.9 20.5659 105.3 17.4697 104.421 15.2521C103.612 13.2298 102.427 11.7096 99.7211 11.1098V11.0541C103.849 10.817 105.983 8.9899 105.983 6.07498C105.983 2.92295 103.57 0.789062 98.7587 0.789062H97.2524C100.851 1.068 101.423 3.69004 101.423 6.07498C101.423 8.47386 100.879 10.7612 97.1409 10.9425C100.753 11.2772 98.4379 20.7891 104.1 20.7891H107.099ZM97.3361 20.7891V20.5659C96.0809 20.5659 95.0488 19.4223 95.0488 17.9299V0.789062H88.2008V1.02616C89.4421 1.02616 90.4742 2.16982 90.4742 3.6482V17.9299C90.4742 19.4223 89.4421 20.5659 88.2008 20.5659V20.7891H97.3361Z" fill="#1E1E1E"/>
<path d="M124.505 20.7891V14.7919H124.268C123.501 17.6649 120.669 20.7891 117.782 20.7891H124.505ZM115.356 20.7891V10.7891H115.384L115.356 0.789062H108.508V1.02616C109.763 1.02616 110.795 2.16982 110.795 3.6482V17.9299C110.795 19.4223 109.763 20.5659 108.508 20.5659V20.7891H115.356ZM122.566 13.2158V8.41807H122.343C122.343 9.68725 120.377 10.7891 117.992 10.7891C120.377 10.7891 122.343 11.9746 122.343 13.2158H122.566ZM124.505 6.80022V0.789062H117.782C120.669 0.789062 123.501 3.92714 124.268 6.80022H124.505Z" fill="#1E1E1E"/>
<path d="M141.967 20.7891V14.7919H141.729C140.962 17.6649 138.131 20.7891 135.244 20.7891H141.967ZM132.817 20.7891V10.7891H132.845L132.817 0.789062H125.969V1.02616C127.225 1.02616 128.257 2.16982 128.257 3.6482V17.9299C128.257 19.4223 127.225 20.5659 125.969 20.5659V20.7891H132.817ZM140.028 13.2158V8.41807H139.805C139.805 9.68725 137.838 10.7891 135.453 10.7891C137.838 10.7891 139.805 11.9746 139.805 13.2158H140.028ZM141.967 6.80022V0.789062H135.244C138.131 0.789062 140.962 3.92714 141.729 6.80022H141.967Z" fill="#1E1E1E"/>
</svg>
