<svg width="100" height="100" viewBox="0 0 100 100" fill="none" xmlns="http://www.w3.org/2000/svg">
<g clip-path="url(#clip0_85_720)">
<path d="M50.003 5.70089C37.7745 5.70089 26.7001 10.661 18.6821 18.6851C10.6611 26.6909 5.70402 37.7713 5.70402 50.0059C5.70402 62.2314 10.6611 73.3042 18.6821 81.3131C26.7001 89.3265 37.7745 94.2957 50.003 94.2957C62.2345 94.2957 73.315 89.3265 81.3208 81.3131C89.3388 73.3042 94.2851 62.2314 94.2851 50.0059C94.2851 37.7713 89.3388 26.6909 81.3208 18.6851C73.315 10.661 62.2345 5.70089 50.003 5.70089ZM50.003 0.333168C77.4293 0.333168 99.6666 22.5735 99.6666 50.0059C99.6666 77.4292 77.4293 99.6665 50.003 99.6665C22.5797 99.6665 0.333252 77.4292 0.333252 50.0059C0.333252 22.5735 22.5797 0.333168 50.003 0.333168Z" fill="white"/>
<path d="M26.5128 49.6014C26.5128 46.7069 24.5923 45.0627 21.8733 45.0627H20.2093V54.1432H21.826C24.3541 54.1432 26.5128 52.7692 26.5128 49.6014ZM56.1131 52.8684L43.8541 62.5215L32.65 53.7005C31.0333 57.5843 27.1265 60.2819 22.6275 60.2819H13.0386V38.9209H22.6275C27.6548 38.9209 31.2775 42.1177 32.6469 45.5237L43.8541 36.7119L48.0051 39.9789L37.7337 48.0518L39.7077 49.5968L49.976 41.5285L54.1331 44.7863L43.8633 52.8684L45.8342 54.4165L56.1131 46.3328V38.9209H63.5647V54.047H70.998V60.3078H56.1131V52.8684ZM80.4373 54.0501H87.8676V60.3078H72.9781V38.9209H80.4373V54.0501Z" fill="white"/>
</g>
<defs>
<clipPath id="clip0_85_720">
<rect width="100" height="100" fill="white"/>
</clipPath>
</defs>
</svg>
