<svg width="17" height="19" viewBox="0 0 17 19" fill="none" xmlns="http://www.w3.org/2000/svg">
<path d="M10.8999 18.2931C10.6835 18.2931 10.473 18.2229 10.2999 18.0931L6.29989 15.0431C6.17753 14.9489 6.07864 14.8277 6.01098 14.6889C5.94332 14.5501 5.90872 14.3975 5.90988 14.2431V10.9731L1.10989 1.75309C1.03083 1.60051 0.99244 1.43012 0.998406 1.25838C1.00437 1.08663 1.0545 0.919322 1.14394 0.772588C1.23339 0.625853 1.35914 0.504645 1.50907 0.420657C1.659 0.336669 1.82804 0.292735 1.99988 0.293093H15.9999C16.1734 0.293123 16.344 0.338316 16.4948 0.424229C16.6455 0.510141 16.7714 0.633816 16.8599 0.783093C16.9477 0.935112 16.9939 1.10756 16.9939 1.28309C16.9939 1.45863 16.9477 1.63107 16.8599 1.78309L11.8599 10.9931V17.2931C11.8612 17.4795 11.8104 17.6625 11.7132 17.8215C11.616 17.9805 11.4763 18.1092 11.3099 18.1931C11.1819 18.2552 11.0421 18.2893 10.8999 18.2931Z" fill="#53616E"/>
</svg>
