<svg width="24" height="24" viewBox="0 0 24 24" fill="none" xmlns="http://www.w3.org/2000/svg">
<path d="M10.4217 20.2607H6.42174C5.12562 20.256 4.07474 19.209 4.06522 17.9129V9.95637C4.06776 9.52249 4.26191 9.1119 4.59565 8.83463L5.3 8.31289C5.55714 8.03892 5.58329 7.62087 5.36229 7.317C5.14129 7.01312 4.73552 6.90919 4.39565 7.06941L3.67391 7.60854C2.94588 8.17186 2.51384 9.03595 2.5 9.95637V17.9216C2.50478 20.0855 4.25781 21.8385 6.42174 21.8433H10.4217C10.854 21.8433 11.2043 21.4929 11.2043 21.0607C11.2043 20.6285 10.854 20.2781 10.4217 20.2781V20.2607Z" fill="#1E1E1E"/>
<path d="M21.2911 9.93905C21.2819 9.02539 20.8639 8.16388 20.152 7.59123L14.1433 2.79992C12.8229 1.73857 10.9419 1.73857 9.62152 2.79992L7.71717 4.18253C7.35939 4.43947 7.27763 4.93779 7.53456 5.29558C7.79149 5.65336 8.28982 5.73512 8.64761 5.47819L10.578 4.03471C11.3357 3.41091 12.429 3.41091 13.1867 4.03471L19.1954 8.82601C19.5413 9.10015 19.7456 9.51519 19.752 9.95645V17.9217C19.752 19.2183 18.7008 20.2695 17.4041 20.2695H15.6215C15.439 20.2695 15.2911 20.1215 15.2911 19.9391V16.3478C15.2911 15.2033 14.3659 14.2743 13.2215 14.2695H10.6128C10.0616 14.2695 9.53302 14.4884 9.14327 14.8782C8.75352 15.2679 8.53456 15.7966 8.53456 16.3478V17.7217C8.53456 18.1539 8.88495 18.5043 9.31717 18.5043C9.74939 18.5043 10.0998 18.1539 10.0998 17.7217V16.3478C10.0974 16.2125 10.1496 16.082 10.2444 15.9855C10.3392 15.889 10.4688 15.8347 10.6041 15.8347H13.2128C13.4914 15.8347 13.7172 16.0605 13.7172 16.3391V19.9391C13.722 20.9874 14.5732 21.8347 15.6215 21.8347H17.3606C19.5266 21.8347 21.2824 20.0789 21.2824 17.913L21.2911 9.93905Z" fill="#1E1E1E"/>
</svg>
