<svg width="101" height="100" viewBox="0 0 101 100" fill="none" xmlns="http://www.w3.org/2000/svg">
<path d="M50.14 2.59454e-05L39.3817 30.1626L46.695 30.1649C51.9631 30.1665 54.2049 34.3201 52.546 38.9717L41.8488 68.9633H31.0846L42.8538 35.9626H37.3115L25.5433 68.9633H14.6861L38.8345 1.25094C16.5961 6.32414 -0.000244141 26.2224 -0.000244141 49.9979C-0.000244141 73.4034 16.0821 93.0498 37.7985 98.4969L62.196 29.9945H79.8654C83.5199 29.9945 88.1163 32.4587 86.1301 38.0671L76.2096 66.0786C74.9424 69.6567 71.9302 70.3818 69.5305 70.3818H58.6683L48.1331 99.9614C48.7534 99.9842 49.3749 99.9998 50.0004 99.9998C77.6149 99.9998 100.001 77.6143 100.001 49.9988C100.001 22.4302 77.6899 0.0747574 50.1384 -0.000244141L50.14 2.59454e-05ZM70.9554 35.8817L60.7082 64.6463H66.165L76.4142 35.8817H70.9554Z" fill="white"/>
</svg>
