<svg width="20" height="20" viewBox="0 0 20 20" fill="none" xmlns="http://www.w3.org/2000/svg">
<g clip-path="url(#clip0_102_35)">
<path d="M12.6514 7.3481C14.1159 8.81256 14.1159 11.1869 12.6514 12.6514C11.1869 14.1159 8.81256 14.1159 7.3481 12.6514C5.88364 11.1869 5.88364 8.81256 7.3481 7.3481C8.81256 5.88364 11.1869 5.88364 12.6514 7.3481Z" fill="#1E1E1E"/>
<path d="M14.375 0H5.625C2.52319 0 0 2.52319 0 5.625V14.375C0 17.4768 2.52319 20 5.625 20H14.375C17.4768 20 20 17.4768 20 14.375V5.625C20 2.52319 17.4768 0 14.375 0ZM10 15C7.24304 15 5 12.7576 5 10C5 7.24244 7.24304 5 10 5C12.757 5 15 7.24244 15 10C15 12.7576 12.757 15 10 15ZM15.625 5C15.2798 5 15 4.72015 15 4.375C15 4.02977 15.2798 3.75 15.625 3.75C15.9702 3.75 16.25 4.02977 16.25 4.375C16.25 4.72015 15.9702 5 15.625 5Z" fill="#1E1E1E"/>
</g>
<defs>
<clipPath id="clip0_102_35">
<rect width="20" height="20" fill="white"/>
</clipPath>
</defs>
</svg>
