<svg width="18" height="19" viewBox="0 0 18 19" fill="none" xmlns="http://www.w3.org/2000/svg">
<g clip-path="url(#clip0_85_548)">
<path d="M16.528 2.50228C15.597 1.50155 14.2923 0.932147 12.9255 0.930036C11.5576 0.93162 10.2516 1.50072 9.31911 2.50164L9.00132 2.83745L8.68352 2.50164C6.83326 0.510242 3.71893 0.39588 1.72758 2.24615C1.63933 2.32817 1.55411 2.41336 1.47209 2.50164C-0.490696 4.61874 -0.490696 7.89062 1.47209 10.0077L8.5343 17.4553C8.77862 17.7132 9.18579 17.7243 9.44373 17.4799C9.45217 17.4719 9.46039 17.4637 9.46838 17.4553L16.528 10.0077C18.4907 7.89085 18.4907 4.61915 16.528 2.50228ZM15.5971 9.12188H15.5965L9.00132 16.0779L2.40553 9.12188C0.90608 7.50422 0.90608 5.00449 2.40553 3.38683C3.76722 1.91098 6.06755 1.81844 7.5434 3.18012C7.61506 3.24624 7.684 3.31518 7.75012 3.38683L8.5343 4.21413C8.79272 4.4709 9.20995 4.4709 9.46838 4.21413L10.2526 3.38747C11.6142 1.91162 13.9146 1.81908 15.3904 3.18076C15.4621 3.24688 15.531 3.31582 15.5971 3.38747C17.1096 5.0077 17.1207 7.51199 15.5971 9.12188Z" fill="#1E1E1E"/>
</g>
<defs>
<clipPath id="clip0_85_548">
<rect width="18" height="18" fill="white" transform="translate(0 0.293091)"/>
</clipPath>
</defs>
</svg>
