<svg width="189" height="50" viewBox="0 0 189 50" fill="none" xmlns="http://www.w3.org/2000/svg">
<path d="M167.46 23.4819V26.8848H169.852V30.2611C169.859 30.5628 169.843 30.8882 169.791 31.1485C169.696 31.7783 169.098 32.8506 167.4 32.8506C165.713 32.8506 165.125 31.7783 165.023 31.1485C164.98 30.8882 164.962 30.5628 164.962 30.2611V19.5971C164.962 19.2199 164.988 18.8071 165.068 18.4946C165.184 17.9262 165.687 16.8054 167.388 16.8054C169.172 16.8054 169.618 17.9871 169.72 18.4946C169.787 18.8307 169.791 19.3946 169.791 19.3946V20.6895H175.667V19.924C175.667 19.924 175.694 19.1253 175.623 18.3798C175.181 14.0029 171.575 12.6181 167.439 12.6181C163.297 12.6181 159.763 14.0158 159.249 18.3798C159.202 18.7789 159.131 19.4968 159.131 19.924V29.7338C159.131 30.161 159.145 30.4918 159.224 31.2725C159.608 35.5291 163.297 37.0379 167.423 37.0379C171.575 37.0379 175.238 35.5291 175.628 31.2725C175.697 30.4918 175.705 30.161 175.714 29.7338V23.4819H167.46ZM126.943 13.2458H121.042V30.5071C121.051 30.8079 121.042 31.1458 120.99 31.3936C120.867 31.973 120.376 33.0882 118.748 33.0882C117.141 33.0882 116.637 31.973 116.523 31.3936C116.464 31.1458 116.456 30.8079 116.464 30.5071V13.2458H110.565V29.9714C110.557 30.4025 110.591 31.2833 110.616 31.514C111.024 35.8724 114.459 37.2875 118.748 37.2875C123.045 37.2875 126.478 35.8724 126.893 31.514C126.926 31.2833 126.968 30.4025 126.943 29.9714V13.2458ZM72.723 13.2458L69.7793 31.4847L66.8375 13.2458H57.3186L56.8138 36.5786H62.6454L62.8032 14.9787L66.8156 36.5786H72.7322L76.7482 14.9787L76.9067 36.5786H82.7529L82.231 13.2458H72.723ZM37.4798 13.2458L33.1577 36.5786H39.4605L42.7176 14.9787L45.8964 36.5786H52.1555L47.8513 13.2458H37.4798ZM147.566 32.0315L142.071 13.2458H133.413V36.3353H139.141L138.808 16.9486L144.709 36.3353H153.013V13.2458H147.248L147.566 32.0315ZM94.5841 19.3182C94.4804 18.8574 94.5104 18.3679 94.564 18.112C94.7309 17.3651 95.2328 16.5504 96.6787 16.5504C98.0263 16.5504 98.8164 17.3905 98.8164 18.6513V20.078H104.569V18.4517C104.569 13.4243 100.062 12.6346 96.7982 12.6346C92.6882 12.6346 89.3317 13.9894 88.7187 17.7722C88.5566 18.8017 88.5165 19.7155 88.7744 20.8816C89.7739 25.5983 97.9853 26.9666 99.1771 29.9495C99.3874 30.5145 99.3272 31.2351 99.2199 31.6596C99.0414 32.4359 98.5192 33.2167 96.9711 33.2167C95.5192 33.2167 94.6452 32.382 94.6452 31.1239L94.6434 28.8847H88.4517V30.6646C88.4517 35.8224 92.4916 37.3785 96.8428 37.3785C101.01 37.3785 104.452 35.9545 105.004 32.0944C105.268 30.0999 105.069 28.8008 104.963 28.3115C103.998 23.4738 95.2465 22.0186 94.5841 19.3182M18.7016 19.261C18.5887 18.7906 18.615 18.2941 18.678 18.0353C18.8373 17.292 19.3422 16.4629 20.8136 16.4629C22.1783 16.4629 22.9818 17.3111 22.9818 18.5821V20.0262H28.8017V18.387C28.8017 13.3114 24.2255 12.5024 20.9265 12.5024C16.782 12.5024 13.3956 13.8782 12.776 17.6883C12.6064 18.7343 12.5773 19.6544 12.8224 20.8333C13.8327 25.6037 22.1252 26.9831 23.3318 30.0016C23.5577 30.5628 23.4893 31.2833 23.3773 31.7244C23.1858 32.5087 22.6594 33.3006 21.0985 33.3006C19.6409 33.3006 18.769 32.4515 18.769 31.1761L18.7609 28.9308H12.4998V30.715C12.4998 35.9317 16.5969 37.5005 20.9819 37.5005C25.1977 37.5005 28.6597 36.0639 29.2244 32.1591C29.5052 30.1463 29.2946 28.8364 29.1999 28.3397C28.2151 23.4426 19.3659 21.9922 18.7016 19.261" fill="white"/>
</svg>
