<svg width="140" height="25" viewBox="0 0 140 25" fill="none" xmlns="http://www.w3.org/2000/svg">
<g clip-path="url(#clip0_85_728)">
<path d="M49.7386 24.7212C44.7094 24.7212 40.041 23.2131 36.9248 20.4161C34.5705 18.3029 33.4392 15.4326 33.4392 12.4784C33.4392 9.56017 34.6193 6.67008 36.9245 4.56809C39.8185 1.93057 44.928 0.278809 49.7386 0.278809C55.0621 0.278809 59.323 1.61973 62.5802 4.57534C64.8977 6.67844 66.0181 9.55571 66.0181 12.4787C66.0181 15.3119 64.8291 18.3291 62.5802 20.4161C59.5471 23.2312 54.7806 24.7212 49.7386 24.7212V21.4975C52.4079 21.4975 54.884 20.5758 56.6133 18.8552C58.3305 17.1463 59.1306 15.0457 59.1306 12.4784C59.1306 10.019 58.2675 7.71968 56.6133 6.08883C54.9071 4.40835 52.3719 3.46273 49.7386 3.46273C47.0972 3.46273 44.5603 4.39859 42.8527 6.08883C41.2074 7.71912 40.3421 10.0252 40.3421 12.4784C40.3421 14.9241 41.2174 17.2288 42.8527 18.8555C44.5617 20.5555 47.0896 21.4977 49.7386 21.4977V24.7215V24.7212ZM12.9805 0.290517C10.2903 0.290517 7.23405 0.793712 4.63723 1.95343C2.24057 3.02282 0.278809 4.75236 0.278809 7.6196C0.277694 10.2019 1.91886 11.7143 1.87426 11.6725C2.57232 12.3151 3.69608 13.4093 6.63412 14.0518C7.94717 14.339 10.7545 14.78 13.5501 15.0722C16.325 15.3649 19.0559 15.6431 20.1683 15.9247C21.052 16.1497 22.5365 16.456 22.5365 18.1215C22.5365 19.7802 20.9725 20.2864 20.7007 20.3963C20.4292 20.5036 18.553 21.3645 15.1804 21.3645C12.6903 21.3645 9.69678 20.6157 8.60564 20.2254C7.3478 19.7777 6.02834 19.1855 4.79753 17.6821C4.49143 17.3094 4.00859 16.2843 4.00859 15.2693H0.956241V23.8222H4.34898V22.6667C4.34898 22.5351 4.51345 21.994 5.083 22.2513C5.79165 22.5733 7.8719 23.4015 10.0469 23.8556C11.8303 24.2286 12.9802 24.496 15.1974 24.496C18.8148 24.496 20.7582 23.9067 22.1016 23.5231C23.3672 23.1606 24.9312 22.51 26.2016 21.4969C26.8896 20.9491 28.3984 19.5449 28.3984 16.996C28.3984 14.5495 27.0853 13.031 26.6234 12.569C25.9942 11.9395 25.2256 11.4517 24.4247 11.0756C23.7269 10.7472 22.6257 10.3527 21.7247 10.1322C19.9759 9.70291 16.0217 9.17323 14.1308 8.9753C12.1478 8.76816 8.70796 8.48325 7.33414 8.05812C6.91764 7.92904 6.06848 7.52453 6.06848 6.53877C6.06848 5.83765 6.45682 5.24329 7.2243 4.76296C8.44256 3.99966 10.9033 3.52518 13.4684 3.52518C16.5009 3.51403 19.069 4.20735 20.7027 4.93775C21.2583 5.18586 21.9084 5.54214 22.4247 5.96365C23.0073 6.43869 23.8253 7.42585 24.1211 8.80273H26.8615V1.35768H23.8016V2.22301C23.8016 2.50234 23.513 2.86531 22.9675 2.56535C21.5981 1.84694 17.7264 0.296929 12.98 0.290517M80.0362 1.64343L94.9626 15.114L94.8093 6.0445C94.7942 4.85523 94.5751 4.35873 93.2888 4.35873H90.4823V1.64566H103.245V4.35873H100.507C99.1953 4.35873 99.1125 4.77829 99.0966 6.0445L99.328 23.3742H94.9573L77.765 8.03024L77.7686 18.9199C77.7837 20.1036 77.8392 20.6611 79.0588 20.6611H82.124V23.3731H69.5901V20.6614H72.5201C73.6146 20.6614 73.5711 19.6179 73.5711 18.8583V6.14765C73.5711 5.3272 73.4559 4.36068 71.7375 4.36068H69.3601V1.64343H80.0362ZM117.829 20.6561C117.948 20.6561 118.481 20.6408 118.584 20.6093C118.879 20.5173 119.079 20.3071 119.171 20.088C119.21 19.996 119.23 19.5889 119.23 19.5006L119.232 15.213C119.232 15.1098 119.224 15.0652 119.049 14.8355C118.857 14.5846 111.231 5.94247 110.882 5.56193C110.448 5.08941 109.687 4.35901 108.531 4.35901H105.879V1.64482H120.846V4.35566H119.042C118.624 4.35566 118.347 4.75153 118.703 5.19144C118.703 5.19144 123.739 11.215 123.787 11.278C123.833 11.3421 123.874 11.3575 123.938 11.2989C124.001 11.239 129.1 5.24664 129.14 5.19924C129.382 4.90876 129.218 4.35873 128.695 4.35873H126.844V1.64482H139.111V4.35873H136.37C135.376 4.35873 134.971 4.54272 134.224 5.38826C133.881 5.7752 126.174 14.5726 125.964 14.811C125.855 14.9356 125.864 15.1093 125.864 15.2124V19.4995C125.864 19.5864 125.884 19.994 125.923 20.0854C126.015 20.3057 126.216 20.5159 126.511 20.6068C126.614 20.6385 127.139 20.6542 127.259 20.6542H130.062V23.3678H115.172V20.6539L117.829 20.6561H117.829Z" fill="white"/>
</g>
<defs>
<clipPath id="clip0_85_728">
<rect width="139.389" height="25" fill="white"/>
</clipPath>
</defs>
</svg>
