<svg width="16" height="16" viewBox="0 0 16 17" fill="none" xmlns="http://www.w3.org/2000/svg">
<path d="M8.49494 2.87898L9.91784 5.76174C9.95744 5.84196 10.0159 5.91134 10.0883 5.96392C10.1607 6.01649 10.2448 6.05068 10.3333 6.06353L13.5145 6.52588C13.6164 6.54068 13.7122 6.5837 13.7909 6.65007C13.8696 6.71645 13.9282 6.80353 13.96 6.90147C13.9918 6.99941 13.9956 7.10429 13.9708 7.20426C13.9461 7.30422 13.894 7.39528 13.8202 7.46712L11.5178 9.71098C11.3876 9.83788 11.3286 10.0205 11.3589 10.1993L11.9024 13.3678C11.9198 13.4693 11.9084 13.5736 11.8696 13.6689C11.8308 13.7643 11.7661 13.8469 11.6828 13.9074C11.5996 13.9679 11.501 14.0039 11.3983 14.0113C11.2957 14.0187 11.193 13.9972 11.1018 13.9493L8.25605 12.4531C8.17682 12.4115 8.08869 12.3898 7.99922 12.3898C7.90975 12.3898 7.82162 12.4115 7.74239 12.4531L4.8966 13.9493C4.80548 13.9972 4.70278 14.0187 4.60011 14.0113C4.49743 14.0039 4.39888 13.9679 4.3156 13.9074C4.23231 13.8469 4.16761 13.7643 4.12881 13.6689C4.09001 13.5736 4.07866 13.4693 4.09605 13.3678L4.6395 10.1993C4.65463 10.1111 4.64806 10.0206 4.62038 9.93549C4.5927 9.85042 4.54472 9.77336 4.4806 9.71098L2.17826 7.46712C2.10449 7.39528 2.0523 7.30422 2.02759 7.20426C2.00288 7.10429 2.00665 6.99941 2.03845 6.90147C2.07025 6.80353 2.12883 6.71645 2.20755 6.65007C2.28628 6.5837 2.38201 6.54068 2.48391 6.52588L5.66515 6.06353C5.75368 6.05068 5.83775 6.01649 5.91013 5.96392C5.9825 5.91134 6.04101 5.84196 6.0806 5.76174L7.5035 2.87898C7.70763 2.46905 8.29246 2.46905 8.49494 2.87898Z" fill="white"/>
</svg>
