<svg width="95" height="16" viewBox="0 0 95 16" fill="none" xmlns="http://www.w3.org/2000/svg">
<path fill-rule="evenodd" clip-rule="evenodd" d="M85.8466 13.1028L90.981 15.8022L90.0005 10.0849L94.1543 6.03589L88.4138 5.20175L85.8466 0V13.1028Z" fill="#ECF0F2"/>
<path fill-rule="evenodd" clip-rule="evenodd" d="M85.8464 12.8482L80.9633 15.4155L81.8959 9.978L77.9453 6.12718L83.4048 5.33386L85.8464 0.386703V12.8482Z" fill="#FF6B00"/>
<path fill-rule="evenodd" clip-rule="evenodd" d="M66.4615 12.8482L61.5784 15.4155L62.511 9.978L58.5604 6.12718L64.0199 5.33386L66.4615 0.386703L68.9031 5.33386L74.3626 6.12718L70.412 9.978L71.3446 15.4155L66.4615 12.8482Z" fill="#FF6B00"/>
<path fill-rule="evenodd" clip-rule="evenodd" d="M47.0767 12.8482L42.1936 15.4155L43.1262 9.978L39.1757 6.12718L44.6352 5.33386L47.0767 0.386703L49.5183 5.33386L54.9778 6.12718L51.0273 9.978L51.9599 15.4155L47.0767 12.8482Z" fill="#FF6B00"/>
<path fill-rule="evenodd" clip-rule="evenodd" d="M27.6925 12.8482L22.8093 15.4155L23.7419 9.978L19.7914 6.12718L25.2509 5.33386L27.6925 0.386703L30.134 5.33386L35.5935 6.12718L31.643 9.978L32.5756 15.4155L27.6925 12.8482Z" fill="#FF6B00"/>
<path fill-rule="evenodd" clip-rule="evenodd" d="M8.30769 12.8482L3.42455 15.4155L4.35715 9.978L0.406607 6.12718L5.86612 5.33386L8.30769 0.386703L10.7493 5.33386L16.2088 6.12718L12.2582 9.978L13.1908 15.4155L8.30769 12.8482Z" fill="#FF6B00"/>
</svg>
