<svg width="20" height="17" viewBox="0 0 20 17" fill="none" xmlns="http://www.w3.org/2000/svg">
<path d="M17.7711 4.82663L17.7831 5.33323C17.7831 10.5064 13.826 16.4662 6.58905 16.4662C4.36784 16.4662 2.30039 15.8186 0.558594 14.708C0.86624 14.7438 1.1798 14.7637 1.49744 14.7637C3.34115 14.7637 5.03701 14.1379 6.38331 13.0889C4.66149 13.0572 3.20927 11.9248 2.70792 10.3713C2.94959 10.417 3.1933 10.4388 3.44897 10.4388C3.80853 10.4388 4.15606 10.3932 4.48566 10.3038C2.6859 9.94218 1.32962 8.36286 1.32962 6.46764V6.41797C1.86093 6.71199 2.46617 6.8868 3.11136 6.90869C2.05668 6.20742 1.36155 5.00948 1.36155 3.65261C1.36155 2.93546 1.55532 2.26398 1.89287 1.6859C3.83245 4.05393 6.73282 5.61142 10.0027 5.77434C9.93479 5.48824 9.90088 5.18828 9.90088 4.88237C9.90088 2.72294 11.6627 0.970703 13.836 0.970703C14.9665 0.970703 15.9893 1.44547 16.7083 2.20635C17.6032 2.02951 18.4462 1.70374 19.2072 1.25674C18.9136 2.1706 18.2904 2.93742 17.4774 3.42212C18.2704 3.32874 19.0315 3.11615 19.7366 2.80626C19.2093 3.58896 18.5401 4.27834 17.7711 4.82663Z" fill="#1E1E1E"/>
</svg>
