<svg width="24" height="25" viewBox="0 0 24 25" fill="none" xmlns="http://www.w3.org/2000/svg">
<g clip-path="url(#clip0_96_1074)">
<path d="M21 6.00208H18C17.586 6.00208 17.25 6.33808 17.25 6.75208C17.25 7.16608 17.586 7.50208 18 7.50208H21C21.4132 7.50208 21.75 7.83883 21.75 8.25208V9.75208C21.75 10.1653 21.4132 10.5021 21 10.5021H3C2.58675 10.5021 2.25 10.1653 2.25 9.75208V8.25208C2.25 7.83883 2.58675 7.50208 3 7.50208H6C6.414 7.50208 6.75 7.16608 6.75 6.75208C6.75 6.33808 6.414 6.00208 6 6.00208H3C1.7595 6.00208 0.75 7.01158 0.75 8.25208V9.75208C0.75 10.7571 1.41675 11.6001 2.328 11.8881L3.558 21.1138C3.71775 22.3131 4.79025 23.2521 6 23.2521H18C19.2097 23.2521 20.2822 22.3131 20.4412 21.1146L21.6712 11.8881C22.5833 11.6001 23.25 10.7571 23.25 9.75208V8.25208C23.25 7.01158 22.2405 6.00208 21 6.00208ZM18.9548 20.9166C18.8955 21.3613 18.4492 21.7521 18 21.7521H6C5.55075 21.7521 5.1045 21.3613 5.04525 20.9158L3.8565 12.0021H20.1435L18.9548 20.9166Z" fill="white"/>
<path d="M7.22116 9.69883C7.31266 9.73483 7.40716 9.75208 7.50016 9.75208C7.79791 9.75208 8.07916 9.57358 8.19691 9.28033L11.1969 1.78033C11.3507 1.39558 11.1639 0.959077 10.7792 0.805327C10.3922 0.652327 9.95791 0.838327 9.80416 1.22308L6.80416 8.72308C6.64966 9.10858 6.83716 9.54433 7.22116 9.69883ZM15.8034 9.28108C15.9212 9.57358 16.2032 9.75208 16.5002 9.75208C16.5932 9.75208 16.6869 9.73483 16.7784 9.69808C17.1632 9.54358 17.3499 9.10783 17.1962 8.72308L14.1962 1.22308C14.0424 0.839077 13.6067 0.653827 13.2212 0.805327C12.8364 0.959827 12.6497 1.39558 12.8034 1.78033L15.8034 9.28108ZM12.0002 19.5021C12.4142 19.5021 12.7502 19.1661 12.7502 18.7521V15.0021C12.7502 14.5881 12.4142 14.2521 12.0002 14.2521C11.5862 14.2521 11.2502 14.5881 11.2502 15.0021V18.7521C11.2502 19.1661 11.5862 19.5021 12.0002 19.5021ZM15.7502 19.5021C16.1642 19.5021 16.5002 19.1661 16.5002 18.7521V15.0021C16.5002 14.5881 16.1642 14.2521 15.7502 14.2521C15.3362 14.2521 15.0002 14.5881 15.0002 15.0021V18.7521C15.0002 19.1661 15.3362 19.5021 15.7502 19.5021ZM8.25016 19.5021C8.66416 19.5021 9.00016 19.1661 9.00016 18.7521V15.0021C9.00016 14.5881 8.66416 14.2521 8.25016 14.2521C7.83616 14.2521 7.50016 14.5881 7.50016 15.0021V18.7521C7.50016 19.1661 7.83616 19.5021 8.25016 19.5021Z" fill="white"/>
</g>
<defs>
<clipPath id="clip0_96_1074">
<rect width="24" height="24" fill="white" transform="translate(0 0.0020752)"/>
</clipPath>
</defs>
</svg>
